<?xml version="1.0" encoding="UTF-8" standalone="no"?>
<svg
   xmlns:dc="http://purl.org/dc/elements/1.1/"
   xmlns:cc="http://creativecommons.org/ns#"
   xmlns:rdf="http://www.w3.org/1999/02/22-rdf-syntax-ns#"
   xmlns:svg="http://www.w3.org/2000/svg"
   xmlns="http://www.w3.org/2000/svg"
   xmlns:sodipodi="http://sodipodi.sourceforge.net/DTD/sodipodi-0.dtd"
   xmlns:inkscape="http://www.inkscape.org/namespaces/inkscape"
   version="1.1"
   width="100%"
   height="100%"
   viewBox="0 0 16 16"
   id="svg2"
   inkscape:version="0.91 r"
   sodipodi:docname="Restaurant-16-or.svg">
  <sodipodi:namedview
     pagecolor="#ffffff"
     bordercolor="#666666"
     borderopacity="1"
     objecttolerance="10"
     gridtolerance="10"
     guidetolerance="10"
     inkscape:pageopacity="0"
     inkscape:pageshadow="2"
     inkscape:window-width="1920"
     inkscape:window-height="1056"
     id="namedview7"
     showgrid="false"
     inkscape:zoom="24.805803"
     inkscape:cx="0.23401043"
     inkscape:cy="7.1589469"
     inkscape:window-x="0"
     inkscape:window-y="24"
     inkscape:window-maximized="1"
     inkscape:current-layer="svg2" />
  <metadata
     id="metadata8">
    <rdf:RDF>
      <cc:Work
         rdf:about="">
        <dc:format>image/svg+xml</dc:format>
        <dc:type
           rdf:resource="http://purl.org/dc/dcmitype/StillImage" />
        <dc:title></dc:title>
      </cc:Work>
    </rdf:RDF>
  </metadata>
  <defs
     id="defs6" />
  <rect
     width="16"
     height="16"
     x="0"
     y="0"
     id="canvas"
     style="fill:none;stroke:none;visibility:hidden" />
  <path
     d="M 4,0 C 3,0 1,2 1,5 1,8 3.25,9 3.25,9 l -0.5,5 2.5,0 -0.5,-5 C 4.75,9 7,8 7,5 7,2 5,0 4,0 z M 8,0.75 8,7 c 0,1 1.75,1 1.75,2 l -0.5,5 2.5,0 -0.5,-5 C 11.25,8 13,8 13,7 l 0,-6.25 c 0,-1 -1,-1 -1,0 L 12,6 c 0,0.5632885 -1,0.5632884 -1,0 l 0,-5.25 c 0,-1 -1,-1 -1,0 L 10,6 C 10,6.5273339 9,6.5273339 9,6 L 9,0.75 c 0,-1 -1,-1 -1,0 z"
     id="restaurant"
     style="fill:#ff9900;fill-opacity:1;stroke:none"
     transform="translate(1,1)" />
</svg>
